<?xml version="1.0" encoding="utf-8"?>
<!-- Generator: Adobe Illustrator 22.0.1, SVG Export Plug-In . SVG Version: 6.00 Build 0)  -->
<svg version="1.1" id="Ebene_1" xmlns="http://www.w3.org/2000/svg" xmlns:xlink="http://www.w3.org/1999/xlink" x="0px" y="0px"
	 viewBox="0 0 436.2 158.6" style="enable-background:new 0 0 436.2 158.6;" xml:space="preserve">
<style type="text/css">
	.st0{fill:#00A3BA;}
	.st1{fill:#62BFD0;}
</style>
<g>
	<path class="st0" d="M33.9,95.1C10.8,87.1-5.9,56.4,3.2,31S43.7-4.9,66.8,3.2C123.2,23,140.9,99,142.6,145.3
		C107.6,101.3,54.2,102.3,33.9,95.1"/>
	<path class="st1" d="M57.6,151.5c-6.4,7.4-20.4,9.2-28.6,2.1c-8.2-7.1-7.6-20.4-1.2-27.8c15.7-18.2,46.8-13.7,64.5-7.6
		C70.6,124.8,63.2,144.9,57.6,151.5"/>
	<path d="M401.6,71.7h14.5V48.6c0-9,3.7-16.4,14.3-16.4c1.7,0,3.9,0.2,5.2,0.5V19.6c-0.9-0.3-2.1-0.5-3.2-0.5
		c-7.1,0-14.2,4.5-16.8,10.9h-0.2v-9.5h-13.8V71.7z M356.4,40.6c0.2-4,2.9-10.9,12-10.9c7,0,10.2,3.8,11.5,10.9H356.4z M394.5,49.5
		c1-15.7-7.7-30.4-25.6-30.4c-16,0-26.9,11.7-26.9,27c0,15.8,10.3,26.9,26.9,26.9c11.9,0,20.6-5.1,24.7-17.2h-12.8
		c-0.9,3.2-5.6,6.6-11.4,6.6c-8.1,0-12.5-4.1-13-13L394.5,49.5L394.5,49.5z M328.9,5.2h-14.5v15.3h-8.8v9.4h8.8v30.2
		c0,10.2,7.8,12.2,16.6,12.2c2.8,0,6-0.1,8.5-0.5v-11c-1.5,0.3-3,0.4-4.5,0.4c-4.9,0-6.1-1.2-6.1-5.9V29.9h10.6v-9.4h-10.6V5.2z
		 M301,20.5h-14.5v26.8c0,10.4-3.4,14.7-11.2,14.7c-6.7,0-9.3-4.2-9.3-12.6V20.5h-14.5V52c0,12.7,3.9,21.1,19.3,21.1
		c6.1,0,12.4-2.8,16.1-8.5h0.3v7.1H301L301,20.5L301,20.5z M206.6,40.6c0.2-4,2.9-10.9,12-10.9c7,0,10.2,3.8,11.5,10.9H206.6z
		 M244.7,49.5c1-15.7-7.7-30.4-25.6-30.4c-16,0-26.9,11.7-26.9,27c0,15.8,10.3,26.9,26.9,26.9c11.9,0,20.6-5.1,24.7-17.2H231
		c-0.9,3.2-5.6,6.6-11.4,6.6c-8.1,0-12.6-4.1-13-13L244.7,49.5L244.7,49.5z M156.7,71.7h14.5V48.6c0-9,3.7-16.4,14.3-16.4
		c1.7,0,3.9,0.2,5.2,0.5V19.6c-0.9-0.3-2.1-0.5-3.2-0.5c-7,0-14.2,4.5-16.8,10.9h-0.2v-9.5h-13.8V71.7z"/>
</g>
<g>
	<path d="M175.3,83.7h4.4v33.5c0,9.4-3.5,13.9-13.5,13.9c-10.7,0-13-7.8-12.9-15.9h4.4c0.1,4-0.3,12.1,8.9,12.1
		c6.9,0,8.7-3.5,8.7-12L175.3,83.7L175.3,83.7z"/>
	<path d="M218.4,113.4c0,9.6-5.6,17.7-15.9,17.7c-10.3,0-15.9-8.1-15.9-17.7s5.6-17.7,15.9-17.7C212.8,95.6,218.4,103.7,218.4,113.4
		z M190.7,113.4c0,7.2,3.9,14.3,11.8,14.3s11.8-7.2,11.8-14.3s-3.9-14.3-11.8-14.3S190.7,106.2,190.7,113.4z"/>
	<path d="M224.5,83.7h4.1V103h0.1c1.8-4.8,6.6-7.3,11.6-7.3c10.2,0,15.1,8.3,15.1,17.7s-4.9,17.7-15.1,17.7c-5.4,0-10.1-2.8-12-7.3
		h-0.1v6.4h-3.8L224.5,83.7L224.5,83.7z M240.3,99.1c-8.7,0-11.8,7.3-11.8,14.3s3.1,14.3,11.8,14.3c7.8,0,11-7.3,11-14.3
		S248.1,99.1,240.3,99.1z"/>
	<path d="M281.9,106.4c-0.2-5.1-4.1-7.3-8.8-7.3c-3.6,0-7.9,1.4-7.9,5.8c0,3.6,4.2,4.9,7,5.7l5.5,1.2c4.7,0.7,9.6,3.4,9.6,9.3
		c0,7.3-7.2,10.1-13.5,10.1c-7.8,0-13.1-3.6-13.8-11.8h4.1c0.3,5.5,4.4,8.4,9.9,8.4c3.8,0,9.2-1.7,9.2-6.4c0-3.9-3.6-5.2-7.3-6.1
		l-5.3-1.2c-5.3-1.4-9.4-3.3-9.4-9c0-6.8,6.7-9.4,12.6-9.4c6.7,0,12,3.5,12.3,10.8L281.9,106.4L281.9,106.4z"/>
</g>
</svg>
